<svg width="2040" height="343" viewBox="0 0 2040 343" fill="none" xmlns="http://www.w3.org/2000/svg">
<path d="M197 0.342768L243.5 80.3428L142.5 256.343L49 256.343L197 0.342768Z" fill="#A9DBDA"/>
<path d="M-3.00566e-08 342.367L46.172 262.177L249.093 262L295.702 343.055L-3.00566e-08 342.367Z" fill="#35688A"/>
<path d="M395.077 342.782L302.603 342.992L201.245 167.79L248.196 87L395.077 342.782Z" fill="#F7945D"/>
<path d="M527.3 69.2V95.9H503.3V248.3H527.3V275H449.9V248.3H473.9V95.9H449.9V69.2H527.3ZM643.777 118.7C660.577 118.7 673.777 123.2 683.377 132.2C692.977 141.2 697.777 154.4 697.777 171.8V275H669.577V176.9C669.577 153.1 658.777 141.2 637.177 141.2C629.977 141.2 623.277 143.1 617.077 146.9C610.877 150.7 605.877 155.9 602.077 162.5C598.277 168.9 596.377 176 596.377 183.8V275H568.177V121.7H588.577L592.477 144.2C605.277 127.2 622.377 118.7 643.777 118.7ZM804.509 118.7C815.909 118.7 826.009 120.5 834.809 124.1C843.809 127.7 850.709 132.7 855.509 139.1C860.509 145.5 863.009 152.6 863.009 160.4L862.709 165.8H834.809V163.1C834.809 148.5 823.509 141.2 800.909 141.2C778.509 141.2 767.309 147.9 767.309 161.3C767.309 167.5 770.509 172.1 776.909 175.1C783.309 177.9 793.109 180.6 806.309 183.2C818.909 185.8 829.209 188.5 837.209 191.3C845.409 194.1 852.309 198.5 857.909 204.5C863.709 210.5 866.609 218.6 866.609 228.8C866.609 245.2 861.009 257.5 849.809 265.7C838.609 273.9 822.509 278 801.509 278H797.009C784.409 278 773.409 276.1 764.009 272.3C754.609 268.3 747.309 263 742.109 256.4C737.109 249.6 734.709 242 734.909 233.6V227H762.809V230C762.809 247 777.109 255.5 805.709 255.5C814.109 255.5 821.609 253.6 828.209 249.8C835.009 246 838.409 240.8 838.409 234.2C838.409 228.6 836.509 224.2 832.709 221C829.109 217.8 824.609 215.4 819.209 213.8C813.809 212.2 806.309 210.6 796.709 209C784.309 206.6 774.309 204.2 766.709 201.8C759.109 199.2 752.609 194.9 747.209 188.9C741.809 182.9 739.109 174.7 739.109 164.3C739.109 150.1 744.709 139 755.909 131C767.109 122.8 782.409 118.7 801.809 118.7H804.509ZM978.563 118.7C997.963 118.7 1013.16 125.8 1024.16 140C1035.16 154.2 1040.66 173.7 1040.66 198.5V201.8C1040.66 225.4 1035.16 244 1024.16 257.6C1013.36 271.2 998.163 278 978.563 278C959.763 278 945.063 270.5 934.463 255.5V329.3H906.263V121.7H927.263C928.663 128.1 929.963 135.1 931.163 142.7C942.563 126.7 958.363 118.7 978.563 118.7ZM973.463 141.2C959.863 141.2 949.863 145.9 943.463 155.3C937.263 164.7 934.163 179 934.163 198.2C934.163 217.8 937.363 232.3 943.763 241.7C950.363 250.9 960.263 255.5 973.463 255.5C986.663 255.5 996.463 250.8 1002.86 241.4C1009.26 232 1012.46 217.6 1012.46 198.2C1012.46 178.6 1009.16 164.2 1002.56 155C996.163 145.8 986.463 141.2 973.463 141.2ZM1109.97 59V85.1H1080.57V59H1109.97ZM1109.37 121.7V275H1081.17V121.7H1109.37ZM1228.1 118.7C1242.3 118.7 1253.4 123.3 1261.4 132.5C1269.4 141.5 1273.4 152.9 1273.4 166.7L1272.5 178.1H1247.6V171.5C1247.6 165.5 1246.1 160.2 1243.1 155.6C1240.1 151 1236.3 147.5 1231.7 145.1C1227.1 142.5 1222.5 141.2 1217.9 141.2C1208.3 141.2 1200.8 145 1195.4 152.6C1190 160.2 1187.3 170.5 1187.3 183.5V275H1159.1V121.7H1179.2L1183.4 144.5C1184.6 140.5 1187.3 136.5 1191.5 132.5C1195.7 128.5 1200.9 125.2 1207.1 122.6C1213.5 120 1220.5 118.7 1228.1 118.7ZM1367.67 118.7C1380.27 118.7 1391.37 121.4 1400.97 126.8C1410.77 132 1418.37 139.5 1423.77 149.3C1429.17 159.1 1431.87 170.5 1431.87 183.5V204.8H1324.77C1325.17 221 1328.97 233.5 1336.17 242.3C1343.37 251.1 1354.07 255.5 1368.27 255.5C1380.87 255.5 1390.17 251.8 1396.17 244.4C1402.17 237 1405.17 228.2 1405.17 218H1431.87C1431.87 230 1429.07 240.5 1423.47 249.5C1418.07 258.5 1410.47 265.5 1400.67 270.5C1391.07 275.5 1380.07 278 1367.67 278H1366.47C1344.87 278 1327.77 271.1 1315.17 257.3C1302.77 243.3 1296.57 224.7 1296.57 201.5V195.5C1296.57 180.3 1299.37 166.9 1304.97 155.3C1310.57 143.7 1318.57 134.7 1328.97 128.3C1339.37 121.9 1351.57 118.7 1365.57 118.7H1367.67ZM1366.17 141.2C1354.77 141.2 1345.47 144.7 1338.27 151.7C1331.27 158.7 1326.97 169.1 1325.37 182.9H1403.97V179.3C1403.97 167.9 1400.47 158.7 1393.47 151.7C1386.67 144.7 1377.57 141.2 1366.17 141.2ZM1534.06 118.7C1555.46 118.7 1572.56 125.3 1585.36 138.5C1598.16 151.7 1604.56 169.8 1604.56 192.8V203.9C1604.56 226.9 1598.26 245 1585.66 258.2C1573.06 271.4 1555.86 278 1534.06 278C1512.26 278 1495.06 271.4 1482.46 258.2C1469.86 245 1463.56 226.9 1463.56 203.9V192.8C1463.56 169.8 1469.96 151.7 1482.76 138.5C1495.56 125.3 1512.66 118.7 1534.06 118.7ZM1534.06 141.2C1520.66 141.2 1510.26 145.8 1502.86 155C1495.46 164.2 1491.76 177.7 1491.76 195.5V201.2C1491.76 218.6 1495.36 232 1502.56 241.4C1509.96 250.8 1520.46 255.5 1534.06 255.5C1547.26 255.5 1557.56 250.9 1564.96 241.7C1572.56 232.3 1576.36 218.8 1576.36 201.2V195.5C1576.36 178.1 1572.66 164.7 1565.26 155.3C1558.06 145.9 1547.66 141.2 1534.06 141.2ZM1720.73 118.7C1737.53 118.7 1750.73 123.2 1760.33 132.2C1769.93 141.2 1774.73 154.4 1774.73 171.8V275H1746.53V176.9C1746.53 153.1 1735.73 141.2 1714.13 141.2C1706.93 141.2 1700.23 143.1 1694.03 146.9C1687.83 150.7 1682.83 155.9 1679.03 162.5C1675.23 168.9 1673.33 176 1673.33 183.8V275H1645.13V121.7H1665.53L1669.43 144.2C1682.23 127.2 1699.33 118.7 1720.73 118.7ZM1851.76 59V85.1H1822.36V59H1851.76ZM1851.16 121.7V275H1822.96V121.7H1851.16ZM1960.89 118.7C1973.09 118.7 1983.99 121.4 1993.59 126.8C2003.39 132 2010.99 139.4 2016.39 149C2021.79 158.6 2024.49 169.6 2024.49 182H1996.59C1996.59 169.6 1993.39 159.7 1986.99 152.3C1980.79 144.9 1971.79 141.2 1959.99 141.2C1947.59 141.2 1937.69 145.4 1930.29 153.8C1923.09 162 1919.49 173.3 1919.49 187.7V203.9C1919.49 221.3 1923.09 234.3 1930.29 242.9C1937.49 251.3 1947.69 255.5 1960.89 255.5C1973.09 255.5 1982.19 251.9 1988.19 244.7C1994.39 237.3 1997.49 227.4 1997.49 215H2024.49C2024.49 234.2 2018.69 249.5 2007.09 260.9C1995.69 272.3 1980.39 278 1961.19 278H1958.79C1945.19 278 1933.29 274.9 1923.09 268.7C1912.89 262.3 1904.99 253.4 1899.39 242C1893.99 230.6 1891.29 217.3 1891.29 202.1V194.9C1891.29 179.7 1894.09 166.4 1899.69 155C1905.29 143.4 1913.19 134.5 1923.39 128.3C1933.59 121.9 1945.29 118.7 1958.49 118.7H1960.89Z" fill="#243E63"/>
</svg>
